<?xml version="1.0" encoding="UTF-8"?>
<svg xmlns="http://www.w3.org/2000/svg" version="1.1" xmlns:xlink="http://www.w3.org/1999/xlink" viewBox="0 0 297.6 293.5">
  <defs>
    <style>
      .cls-1 {
        fill: none;
      }

      .cls-2 {
        clip-path: url(#clippath-1);
      }

      .cls-3 {
        isolation: isolate;
      }

      .cls-4 {
        fill: #40519e;
      }

      .cls-5 {
        clip-path: url(#clippath);
      }
    </style>
    <clipPath id="clippath">
      <rect class="cls-1" y=".2" width="298.1" height="293.2"/>
    </clipPath>
    <clipPath id="clippath-1">
      <rect class="cls-1" y="-61.8" width="297.6" height="421"/>
    </clipPath>
  </defs>
  <!-- Generator: Adobe Illustrator 28.7.1, SVG Export Plug-In . SVG Version: 1.2.0 Build 142)  -->
  <g>
    <g id="Layer_1">
      <g class="cls-5">
        <g class="cls-2">
          <image class="cls-3" width="1240" height="1750" transform="translate(0 -61.3) scale(.2)" xlink:href="38680839_8608819-1.png"/>
        </g>
      </g>
      <g>
        <g>
          <path class="cls-4" d="M214.5,152.9c-.8,0-1.7.1-2.4.4h0c-2.2.8-3.1,2.6-2,3.9l2.6,3.2h0l3,3.8.2.3c.4.4.3,1-.1,1.5-.2.2-.5.4-.9.5,0,0-.1,0-.2,0h0c.8,0,1.7-.1,2.4-.4h0c2.2-.8,3.1-2.6,2-3.9l-2.6-3.2h0l-3-3.8-.2-.3c-.4-.4-.3-1,.1-1.5.2-.2.5-.4.9-.5,0,0,.1,0,.2,0h0Z"/>
          <path class="cls-4" d="M213.7,174.8c-.8,0-1.7.1-2.4.4h0c-2.2.8-3.1,2.6-2,3.9l1.5,1.8h0l.8,1,.2.3c.4.4.3,1-.1,1.5-.2.2-.5.4-.9.5,0,0-.1,0-.2,0h0c.8,0,1.7-.1,2.4-.4h0c2.2-.8,3.1-2.6,2-3.9l-.4-.4h0l-1.9-2.3-.2-.3c-.4-.4-.3-1,.1-1.5.2-.2.5-.4.9-.5,0,0,.1,0,.2,0h0Z"/>
          <g>
            <path class="cls-4" d="M208.5,134.2c-.6,0-1.2,0-1.7.3h0c-1.5.6-2.2,1.8-1.4,2.8l.2.3h0l.6.7.2.2c.2.3.2.7,0,1-.1.1-.4.3-.6.4,0,0,0,0-.1,0h0c.6,0,1.2,0,1.7-.3h0c1.5-.6,2.2-1.8,1.4-2.8l-.3-.3h0l-.6-.7-.2-.2c-.2-.3-.2-.7,0-1,.1-.1.4-.3.6-.4,0,0,0,0,.1,0h0Z"/>
            <path class="cls-4" d="M212.8,138.4c-.8,0-1.7.1-2.4.4h0c-2.2.8-3.1,2.6-2,3.9l7.7,9.6h0l3,3.8.2.3c.4.4.3,1-.1,1.5-.2.2-.5.4-.9.5,0,0-.1,0-.2,0h0c.8,0,1.7-.1,2.4-.4h0c2.2-.8,3.1-2.6,2-3.9l-2.6-3.2h0l-8.1-10.1-.2-.3c-.4-.4-.3-1,.1-1.5.2-.2.5-.4.9-.5,0,0,.1,0,.2,0h0Z"/>
          </g>
          <path class="cls-4" d="M206.4,154.8c-.8,0-1.7.1-2.4.4h0c-2.2.8-3.1,2.6-2,3.9l10.6,13.2h0l3,3.8.2.3c.4.4.3,1-.1,1.5-.2.2-.5.4-.9.5,0,0-.1,0-.2,0h0c.8,0,1.7-.1,2.4-.4h0c2.2-.8,3.1-2.6,2-3.9l-2.6-3.2h0l-11.1-13.7-.2-.3c-.4-.4-.3-1,.1-1.5.2-.2.5-.4.9-.5,0,0,.1,0,.2,0h0Z"/>
        </g>
        <g>
          <g>
            <path class="cls-4" d="M187.3,177.3c0,0,0,.1,0,.4h0c0-.2-.2-.3-.4-.3s-.4.2-.4.5,0,.3.1.4.2.2.3.2h.8c0,0,.2,0,.3-.1,0,0,.1-.2.1-.3v-.7h.5s0,0,0,0c-.1,0-.1,0-.1.2v.4c0,.2,0,.3-.1.4-.1.1-.2.2-.4.2h-1c-.2,0-.4,0-.5-.2s-.2-.3-.2-.5,0-.3.2-.5c.1-.1.3-.2.5-.2s.3,0,.4.1h0ZM187.7,176.8c0,0,0,.2-.2.2s-.2,0-.2-.2,0-.2.2-.2.2,0,.2.2Z"/>
            <path class="cls-4" d="M189.1,177.6c0,0,0,.2,0,.3,0,0,0,.2.2.2,0,0,0,0,0,0h0c0,0-.2,0-.3-.1s-.2-.2-.2-.4v-.6c0-.1,0-.2-.1-.2h0s.5,0,.5,0v.9h0ZM190,176.6c-.1,0-.1,0-.1.1v1.1c0,.3.2.4.4.4h0c0,.1-.2.1-.2.1-.1,0-.2,0-.3-.1,0,0,0,0,0-.1-.1.1-.3.2-.5.2s-.4,0-.5-.2h0c0,0,.2,0,.4,0s.2,0,.3-.1.1-.2.1-.3v-1.3h.5s0,0,0,0h0Z"/>
            <path class="cls-4" d="M191.7,177.3c0,0,0,.1,0,.4h0c0-.2-.2-.3-.4-.3s-.4.2-.4.5,0,.3,0,.4c0,.1.1.2.3.2h.7c0,.1-1.8.1-1.8.1h0c0-.1.7-.1.7-.1-.2-.1-.3-.3-.3-.6s0-.3.2-.5c.1-.1.3-.2.5-.2s.3,0,.4,0h0Z"/>
            <path class="cls-4" d="M192.4,177.6c0,0,0,.2,0,.3,0,0,0,.2.2.2,0,0,0,0,0,0h0c0,0-.2,0-.3-.1s-.2-.2-.2-.4v-.6c0-.1,0-.2-.1-.2h0s.5,0,.5,0v.9h0ZM193.3,176.6c-.1,0-.1,0-.1.1v1.1c0,.4-.2.6-.6.6s-.4,0-.5-.2h0c0,0,.2,0,.4,0s.2,0,.3-.1.1-.2.1-.3v-1.3h.5s0,0,0,0h0ZM192.7,178.8s0,0,0,.1h0c0,0,0-.1-.2-.1-.1,0-.2,0-.2.2s0,.2.2.2h.2c0,0-.6,0-.6,0h0c0,0,.2,0,.2,0,0,0-.1-.1-.1-.2,0-.1.1-.2.3-.2s.2,0,.2,0Z"/>
            <path class="cls-4" d="M193.9,176.6c-.2,0-.2,0-.2.2v1.6h-.3v-1.9h.5s0,0,0,0Z"/>
            <path class="cls-4" d="M195.5,177.2c-.1,0-.1,0-.1.2v1.1c0,.2-.1.4-.2.4-.1,0-.3.1-.3.1h0c.1,0,.2-.2.2-.3,0-.1,0-.2,0-.3h-.2c-.3,0-.5,0-.6-.2-.1-.1-.2-.3-.2-.5,0-.4.4-.6.9-.6h.7c0,0,0,0,0,0h0ZM194.2,177.8c0,.3.2.5.5.6h.3v-1c0,0-.1,0-.2,0-.3,0-.6.2-.6.5h0Z"/>
            <path class="cls-4" d="M198.2,177.2c-.1,0-.1,0-.1.2v.9h.4c0,.1-1.1.1-1.1.1-.2,0-.4,0-.5-.2s-.2-.3-.2-.5c0-.4.4-.6.9-.6h.7s0,0,0,0h0ZM197.7,177.4c-.2,0-.4,0-.5,0s-.3.2-.3.4,0,.3.1.4c0,.1.2.2.3.2h.4v-1ZM197.3,176.8c0,0,0,.2-.2.2s-.2,0-.2-.2,0-.2.2-.2.2,0,.2.2ZM197.7,176.8c0,0,0,.2-.2.2s-.2,0-.2-.2,0-.2.2-.2.2,0,.2.2Z"/>
            <path class="cls-4" d="M199.2,177.3c-.1,0-.1,0-.1.2v.4c0,.2,0,.4-.2.4-.1.1-.2.2-.4.2h-.2c0-.1,0-.1,0-.1,0,0,.2,0,.3-.1,0,0,.1-.2.1-.3v-.7h.5s0,0,0,0h0ZM198.8,178.9c0,0,0,.2-.2.2s-.2,0-.2-.2,0-.2.2-.2.2,0,.2.2ZM199.2,178.9c0,0,0,.2-.2.2s-.2,0-.2-.2,0-.2.2-.2.2,0,.2.2Z"/>
            <path class="cls-4" d="M199.9,176.6c-.2,0-.2,0-.2.2v1.5h.4c0,.1-.7.1-.7.1v-1.9h.5Z"/>
            <path class="cls-4" d="M201.4,177.3c0,0,0,.1,0,.4h0c0-.2-.2-.3-.4-.3s-.4.2-.4.5,0,.3,0,.4c0,.1.1.2.3.2h.7c0,.1-1.8.1-1.8.1h0c0-.1.7-.1.7-.1-.2-.1-.3-.3-.3-.6s0-.3.2-.5c.1-.1.3-.2.5-.2s.3,0,.4,0h0Z"/>
            <path class="cls-4" d="M202.9,177.4c.1.1.2.3.2.5h0c0,.4.2.5.4.5h0c0,.1-.2.1-.2.1-.1,0-.2,0-.3-.1,0,0,0,0-.1-.1-.1.1-.3.2-.5.2h-.5c0-.1.5-.1.5-.1.1,0,.2,0,.3-.2,0-.1.1-.2.1-.4,0-.3-.1-.5-.4-.5s-.4,0-.4.3h0c0-.2,0-.3,0-.4s.2-.1.4-.1.4,0,.5.2h0Z"/>
            <path class="cls-4" d="M204.4,176.6c-.2,0-.2,0-.2.2v1.1c0,.3.2.4.4.4h0c0,.1-.2.1-.2.1-.1,0-.2,0-.3-.1,0,0,0,0,0-.1-.1.1-.2.2-.4.2h-.2c0-.1,0-.1,0-.1,0,0,.2,0,.3-.1s.1-.2.1-.3v-1.3h.5c0,0,0,0,0,0Z"/>
            <path class="cls-4" d="M205.5,176.6c-.2,0-.2,0-.2.2v1c0,.2,0,.3-.2.4-.1.1-.2.2-.4.2h-.2c0-.1,0-.1,0-.1,0,0,.2,0,.3-.1s.1-.2.1-.3v-1.3h.5c0,0,0,0,0,0Z"/>
          </g>
          <g>
            <path class="cls-4" d="M188,182s0,0-.1,0c0,0-.1,0-.2,0s-.2-.1-.2-.3v-.2h-.8l-.2.5h-.1l.7-1.7h0l.6,1.4c0,0,0,.2.1.2,0,0,0,0,.2,0h0q0,0,0,0ZM187.4,181.4l-.3-.7-.3.7h.6Z"/>
            <path class="cls-4" d="M189.1,182h-.2c0-.1,0-.1,0-.1,0,0,0,0-.1.1s-.1,0-.2,0c-.1,0-.3,0-.4-.2,0-.1-.1-.3-.1-.4s0-.3.1-.4c0-.1.2-.2.4-.2s.2,0,.3,0v-.2c0-.2,0-.3-.2-.3h0c0,0,.2,0,.2,0,0,0,.1,0,.2,0,0,0,0,.1,0,.2v1.4h0ZM188.9,180.9c0,0-.2,0-.2,0s-.2,0-.2.1,0,.2,0,.4,0,.3,0,.4.1.1.2.1.1,0,.2,0,0,0,0-.1v-.8h0Z"/>
            <path class="cls-4" d="M190.4,182h-.2c0-.1,0-.1,0-.1,0,0-.2.1-.4.1s-.2,0-.2,0c0,0-.1-.1-.1-.3s0-.2.2-.3c.1,0,.3,0,.5,0h0c0-.2,0-.3,0-.4,0,0-.1,0-.2,0-.1,0-.2,0-.3.2h-.1c0,0,0-.2,0-.2s0,0,.2,0c0,0,.1,0,.2,0s.2,0,.3,0c0,0,.1.2.1.4v.7h0ZM190.1,181.4h0c-.3,0-.4.1-.4.3s0,.1,0,.2c0,0,.1,0,.2,0,.1,0,.2,0,.2-.1v-.4h0Z"/>
            <path class="cls-4" d="M191.6,182h-.2c0-.1,0-.1,0-.1,0,0-.2.1-.4.1s-.2,0-.2,0c0,0-.1-.1-.1-.3s0-.2.2-.3c.1,0,.3,0,.5,0h0c0-.2,0-.3,0-.4,0,0-.1,0-.2,0-.1,0-.2,0-.3.2h-.1c0,0,0-.2,0-.2s0,0,.2,0c0,0,.1,0,.2,0s.2,0,.3,0c0,0,.1.2.1.4v.7h0ZM191.4,181.4h0c-.3,0-.4.1-.4.3s0,.1,0,.2c0,0,.1,0,.2,0,.1,0,.2,0,.2-.1v-.4h0Z"/>
            <path class="cls-4" d="M194.2,182s0,0-.1,0c0,0-.1,0-.2,0s-.2-.1-.2-.3v-.2h-.8l-.2.5h-.1l.7-1.7h0l.6,1.4c0,0,0,.2.1.2,0,0,0,0,.2,0h0q0,0,0,0ZM193.6,181.4l-.3-.7-.3.7h.6Z"/>
            <path class="cls-4" d="M195.4,182h-.2c0-.1,0-.1,0-.1,0,0,0,0-.1.1s-.1,0-.2,0c-.1,0-.3,0-.4-.2,0-.1-.1-.3-.1-.4s0-.3.1-.4c0-.1.2-.2.4-.2s.2,0,.3,0v-.2c0-.2,0-.3-.2-.3h0c0,0,.2,0,.2,0,0,0,.1,0,.2,0,0,0,0,.1,0,.2v1.4h0ZM195.1,180.9c0,0-.2,0-.2,0s-.2,0-.2.1,0,.2,0,.4,0,.3,0,.4.1.1.2.1.1,0,.2,0,0,0,0-.1v-.8h0Z"/>
            <path class="cls-4" d="M196.3,181.6l.4-.8h.1l-.5,1.2h0l-.4-.9c0,0,0-.2-.1-.2s0,0-.1,0h0c0,0,0,0,0,0h0c0,0,.2,0,.2,0,0,0,.1.1.2.3l.2.6h0Z"/>
            <path class="cls-4" d="M197.9,181.4h-.8c0,.1,0,.3,0,.4,0,0,.1.1.2.1.2,0,.3,0,.4-.2h0c-.1.2-.3.3-.5.3s-.3,0-.4-.2c0-.1-.1-.3-.1-.4s0-.3.1-.4c0-.1.2-.2.4-.2.4,0,.5.2.5.6h0c0,.1,0,0,0,0ZM197.7,181.3c0-.3,0-.5-.3-.5s-.1,0-.2.1,0,.2,0,.3h.5Z"/>
            <path class="cls-4" d="M198.5,182h-.2v-.9c0-.1,0-.2-.2-.2h0c0,0,.2,0,.2,0,.1,0,.2,0,.2.1h0c0,0,.1-.1.3-.1s.1,0,.2,0c0,0,0,0,0,.1h-.1s-.1,0-.2,0-.2,0-.2.1v.9h0Z"/>
            <path class="cls-4" d="M199.3,180.9h-.2c0-.1.2-.1.2-.1v-.4h.2v.4h.3c0,.1-.3.1-.3.1v.8c0,.2,0,.2.2.2s.1,0,.2,0h0c0,0,0,.1-.1.1s-.1,0-.2,0c-.2,0-.3-.1-.3-.3v-.8h0Z"/>
            <path class="cls-4" d="M200.4,182h-.2v-.9c0-.1,0-.2-.2-.2h0c0,0,.2,0,.2,0,0,0,.1,0,.2,0,0,0,0,.1,0,.2v.9ZM200.4,180.5c0,0,0,.1-.1.1s-.1,0-.1-.2,0-.1.1-.1.1,0,.1.2Z"/>
            <path class="cls-4" d="M201.6,181.7c0,.1,0,.2-.1.2s-.2,0-.3,0c-.2,0-.3,0-.4-.1,0,0,0-.1,0-.3h0c0,.2.1.3.4.3s.3,0,.3-.2,0-.2-.2-.2h-.1c-.2-.1-.3-.2-.3-.4s0-.2.1-.2c0,0,.2,0,.3,0,.2,0,.3,0,.4.1,0,0,0,.1,0,.3h0c0-.2-.1-.3-.3-.3s-.3,0-.3.2,0,.2.2.2h.2c.2.1.3.2.3.4h0Z"/>
            <path class="cls-4" d="M202.2,182h-.2v-.9c0-.1,0-.2-.2-.2h0c0,0,.2,0,.2,0,0,0,.1,0,.2,0,0,0,0,.1,0,.2v.9ZM202.1,180.5c0,0,0,.1-.1.1s-.1,0-.1-.2,0-.1.1-.1.1,0,.1.2Z"/>
            <path class="cls-4" d="M202.8,182h-.2v-.9c0-.1,0-.2-.2-.2h0c0,0,.2,0,.2,0,.1,0,.2,0,.2.1h0c0,0,.2-.1.3-.1s.2,0,.3,0c0,0,.1.2.1.4v.8h-.2v-.8c0-.1,0-.2,0-.3,0,0-.1,0-.2,0-.1,0-.2,0-.3.1v1h0Z"/>
            <path class="cls-4" d="M203.9,181.1c0-.1,0-.2.1-.3,0,0,.2,0,.3,0h.5c0,0-.2,0-.2,0h0c.1,0,.2.2.2.3s0,.2-.1.3-.2,0-.4,0-.3,0-.3,0,0,0,.3,0,.3,0,.4,0c.1,0,.2.2.2.3s0,.2-.2.3c-.1,0-.2,0-.4,0s-.3,0-.4,0c-.1,0-.2-.2-.2-.3s.1-.3.3-.3c0,0-.1,0-.1-.1s0-.1,0-.1c-.1,0-.2-.2-.2-.3h0ZM204.2,181.8c-.1,0-.2.1-.2.3s.1.3.3.3.3,0,.3-.3-.1-.3-.3-.3h-.1ZM204.6,181.1c0-.2-.1-.3-.3-.3s-.1,0-.2,0c0,0,0,.1,0,.2s0,.2,0,.2c0,0,.1,0,.2,0s.1,0,.2,0c0,0,0-.1,0-.2h0Z"/>
          </g>
          <g>
            <path class="cls-4" d="M198.5,172.7c.1.1.1.3.1.6h-.1c0-.4-.3-.5-.6-.5-.5,0-.7.3-.7.9s.2.8.6.9h1.2v.3h-2.6v-.3h.7c-.3-.2-.5-.5-.5-.9,0-.6.4-1.1,1.2-1.1s.6,0,.7.2h0Z"/>
            <path class="cls-4" d="M200.9,170.3c-.4,0-.5.2-.5.5v4.1h-.8v-4.6h1.3q0,.1,0,.1Z"/>
            <path class="cls-4" d="M203.4,172.1c.3.3.4.7.4,1.1s-.2.9-.4,1.1c-.3.3-.7.5-1.2.5h-1.3v-.3h1.1c.3,0,.6-.1.8-.4s.2-.6.2-.9c0-.8-.3-1.3-1-1.3s-.9.2-.9.7h-.1c0-.5,0-.7.2-.9.2-.2.5-.2,1-.2s.9.2,1.2.5h0Z"/>
            <path class="cls-4" d="M205.7,168.4c0,0,0,.1,0,.3h0c0-.2-.2-.3-.4-.3-.3,0-.5.2-.5.5s.1.5.5.5h.5c0,.1-1.5.1-1.5.1h0c0-.1.5-.1.5-.1-.2-.1-.3-.3-.3-.5,0-.3.3-.6.8-.6s.4,0,.5,0ZM205.7,170.3c-.4,0-.5.2-.5.5v4.1h-.8v-4.6h1.3Z"/>
          </g>
        </g>
      </g>
      <g>
        <g>
          <path class="cls-4" d="M68.9,101.8c-.3,0-.6,0-.9.1h0c-.8.3-1.1,1-.7,1.5l1,1.2h0l1.1,1.4h0c.1.3.1.5,0,.6,0,0-.2.1-.3.2,0,0,0,0,0,0h0c.3,0,.6,0,.9-.1h0c.8-.3,1.1-1,.7-1.5l-1-1.2h0l-1.1-1.4h0c-.1-.3-.1-.5,0-.6,0,0,.2-.1.3-.2,0,0,0,0,0,0h0Z"/>
          <path class="cls-4" d="M68.6,109.9c-.3,0-.6,0-.9.1h0c-.8.3-1.1,1-.7,1.5l.6.7h0l.3.4h0c.1.3.1.5,0,.6,0,0-.2.1-.3.2,0,0,0,0,0,0h0c.3,0,.6,0,.9-.1h0c.8-.3,1.1-1,.7-1.5v-.2h-.1l-.7-.9h0c-.1-.3-.1-.5,0-.6,0,0,.2-.1.3-.2,0,0,0,0,0,0h0Z"/>
          <g>
            <path class="cls-4" d="M66.6,94.8c-.2,0-.4,0-.6.1h0c-.6.2-.8.7-.5,1h0c0,.1.2.4.2.4h0c0,.2,0,.3,0,.5,0,0-.1.1-.2.1,0,0,0,0,0,0h0c.2,0,.4,0,.6-.1h0c.6-.2.8-.7.5-1h0c0-.1-.2-.4-.2-.4h0c0-.2,0-.3,0-.5,0,0,.1-.1.2-.1,0,0,0,0,0,0h0Z"/>
            <path class="cls-4" d="M68.2,96.4c-.3,0-.6,0-.9.1h0c-.8.3-1.1,1-.7,1.5l2.9,3.6h0l1.1,1.4h0c.1.3.1.5,0,.6,0,0-.2.1-.3.2,0,0,0,0,0,0h0c.3,0,.6,0,.9-.1h0c.8-.3,1.1-1,.7-1.5l-1-1.2h0l-3-3.8h0c-.1-.3-.1-.5,0-.6,0,0,.2-.1.3-.2,0,0,0,0,0,0h0Z"/>
          </g>
          <path class="cls-4" d="M65.9,102.5c-.3,0-.6,0-.9.1h0c-.8.3-1.1,1-.7,1.5l4,4.9h0l1.1,1.4h0c.1.3.1.5,0,.6,0,0-.2.1-.3.2,0,0,0,0,0,0h0c.3,0,.6,0,.9-.1h0c.8-.3,1.1-1,.7-1.5l-1-1.2h0l-4.1-5.1h0c-.1-.3-.1-.5,0-.6,0,0,.2-.1.3-.2,0,0,0,0,0,0h0Z"/>
        </g>
        <g>
          <g>
            <path class="cls-4" d="M58.7,110.8s0,0,0,.1h0c0,0,0-.1-.1-.1s-.2,0-.2.2,0,.1,0,.1,0,0,.1,0h.3s0,0,0,0,0,0,0-.1v-.3h.2s0,0,0,0c0,0,0,0,0,0v.2c0,0,0,.1,0,.2,0,0,0,0-.1,0h-.4c0,0-.1,0-.2,0,0,0,0-.1,0-.2s0-.1,0-.2c0,0,.1,0,.2,0s.1,0,.2,0h0ZM58.9,110.6s0,0,0,0,0,0,0,0,0,0,0,0,0,0,0,0Z"/>
            <path class="cls-4" d="M59.4,111s0,0,0,.1c0,0,0,0,0,0h0s0,0,0,0c0,0,0,0,0-.1v-.2s0,0,0,0h0s.2,0,.2,0v.3h0ZM59.8,110.6s0,0,0,0v.4c0,.1,0,.2.2.2h0s0,0,0,0c0,0,0,0,0,0,0,0,0,0,0,0,0,0-.1,0-.2,0s-.1,0-.2,0h0s0,0,.1,0,0,0,0,0,0,0,0-.1v-.5h.2s0,0,0,0h0Z"/>
            <path class="cls-4" d="M60.4,110.8s0,0,0,.1h0c0,0,0-.1-.1-.1s-.2,0-.2.2,0,.1,0,.1c0,0,0,0,0,0h.3s-.7,0-.7,0h0s.2,0,.2,0c0,0-.1-.1-.1-.2s0-.1,0-.2c0,0,.1,0,.2,0s.1,0,.2,0Z"/>
            <path class="cls-4" d="M60.7,111s0,0,0,.1c0,0,0,0,0,0h0s0,0,0,0c0,0,0,0,0-.1v-.2s0,0,0,0h0s.2,0,.2,0v.3h0ZM61,110.6s0,0,0,0v.4c0,.1,0,.2-.2.2s-.1,0-.2,0h0s0,0,.1,0,0,0,0,0,0,0,0-.1v-.5h.2s0,0,0,0h0ZM60.7,111.4s0,0,0,0h0s0,0,0,0c0,0,0,0,0,0s0,0,0,0h0s-.2,0-.2,0h0s0,0,0,0c0,0,0,0,0,0s0,0,.1,0,0,0,0,0h0Z"/>
            <path class="cls-4" d="M61.2,110.6c0,0,0,0,0,0v.6h-.1v-.7h.2s0,0,0,0Z"/>
            <path class="cls-4" d="M61.8,110.8s0,0,0,0v.4c0,0,0,.1,0,.2s0,0-.1,0h0s0,0,0-.1c0,0,0,0,0-.1h0c0,0-.2,0-.2,0,0,0,0-.1,0-.2,0-.1.1-.2.3-.2h.2s0,0,0,0h0ZM61.3,111c0,.1,0,.2.2.2h0v-.4s0,0,0,0c-.1,0-.2,0-.2.2h0Z"/>
            <path class="cls-4" d="M62.8,110.8s0,0,0,0v.4h.1s-.4,0-.4,0c0,0-.1,0-.2,0s0-.1,0-.2c0-.1.1-.2.3-.2h.2s0,0,0,0h0ZM62.6,110.9c0,0-.1,0-.2,0s0,0,0,.2,0,.1,0,.1c0,0,0,0,.1,0h.1v-.4h0ZM62.5,110.7s0,0,0,0,0,0,0,0,0,0,0,0,0,0,0,0ZM62.6,110.7s0,0,0,0,0,0,0,0,0,0,0,0,0,0,0,0Z"/>
            <path class="cls-4" d="M63.2,110.8s0,0,0,0h0c0,.2,0,.3,0,.3s0,0-.1,0h0s0,0,0,0c0,0,0,0,0,0,0,0,0,0,0-.1v-.3h.2s0,0,0,0h0ZM63,111.4s0,0,0,0,0,0,0,0,0,0,0,0,0,0,0,0ZM63.2,111.4s0,0,0,0,0,0,0,0,0,0,0,0,0,0,0,0Z"/>
            <path class="cls-4" d="M63.4,110.6c0,0,0,0,0,0v.6h.1s-.3,0-.3,0v-.7h.2s0,0,0,0Z"/>
            <path class="cls-4" d="M64,110.8s0,0,0,.1h0c0,0,0-.1-.1-.1s-.2,0-.2.2,0,.1,0,.1c0,0,0,0,0,0h.3s-.7,0-.7,0h0s.2,0,.2,0c0,0-.1-.1-.1-.2s0-.1,0-.2c0,0,.1,0,.2,0s.1,0,.2,0Z"/>
            <path class="cls-4" d="M64.6,110.9s0,.1,0,.2h0c0,.1,0,.2.2.2h0s0,0,0,0c0,0,0,0,0,0,0,0,0,0,0,0,0,0-.1,0-.2,0h-.2s.2,0,.2,0c0,0,0,0,.1,0,0,0,0,0,0-.1,0-.1,0-.2-.2-.2s-.1,0-.1.1h0c0,0,0-.1,0-.1s0,0,.2,0,.1,0,.2,0h0Z"/>
            <path class="cls-4" d="M65.1,110.6c0,0,0,0,0,0v.4c0,.1,0,.2.2.2h0s0,0,0,0c0,0,0,0,0,0,0,0,0,0,0,0,0,0,0,0-.2,0h0s0,0,0,0c0,0,0,0,0,0s0,0,0-.1v-.5h.2s0,0,0,0Z"/>
            <path class="cls-4" d="M65.5,110.6c0,0,0,0,0,0v.4c0,0,0,.1,0,.2,0,0,0,0-.1,0h0s0,0,0,0c0,0,0,0,0,0s0,0,0-.1v-.5h.2s0,0,0,0Z"/>
          </g>
          <g>
            <path class="cls-4" d="M59,112.6h0s0,0,0,0c0,0,0,0,0-.1h0c0,0-.3,0-.3,0v.2h-.1l.3-.6h0l.2.5h0c0,0,0,.1,0,.1h0s0,0,0,0ZM58.8,112.4v-.3c-.1,0-.2.3-.2.3h.2Z"/>
            <path class="cls-4" d="M59.4,112.6h0s0,0,0,0,0,0,0,0c0,0,0,0-.1,0,0,0,0-.1,0-.2s0-.1,0-.2c0,0,0,0,.1,0s0,0,.1,0h0c0-.1,0-.2,0-.2h0s0,0,0,0c0,0,0,0,0,0s0,0,0,0v.5h0ZM59.3,112.2s0,0,0,0,0,0,0,0,0,0,0,.1,0,.1,0,.1c0,0,0,0,0,0s0,0,0,0c0,0,0,0,0,0v-.3h0Z"/>
            <path class="cls-4" d="M59.9,112.6h0s0,0-.1,0,0,0,0,0c0,0,0,0,0-.1s0,0,0-.1c0,0,0,0,.2,0h0c0,0,0-.1,0-.1s0,0,0,0c0,0,0,0,0,0h0s0,0,0,0c0,0,0,0,0,0h0s0,0,.1,0c0,0,0,0,0,.2v.3h0ZM59.8,112.4h0c0,0-.2,0-.2.1s0,0,0,0c0,0,0,0,0,0,0,0,0,0,0,0h0Z"/>
            <path class="cls-4" d="M60.3,112.6h0s0,0-.1,0,0,0,0,0c0,0,0,0,0-.1s0,0,0-.1c0,0,0,0,.2,0h0c0,0,0-.1,0-.1s0,0,0,0c0,0,0,0,0,0h0s0,0,0,0c0,0,0,0,0,0h0s0,0,.1,0c0,0,0,0,0,.2v.3h0ZM60.2,112.4h0c0,0-.2,0-.2.1s0,0,0,0c0,0,0,0,0,0,0,0,0,0,0,0h0Z"/>
            <path class="cls-4" d="M61.3,112.6h0s0,0,0,0,0,0,0-.1h0c0,0-.3,0-.3,0v.2h-.1l.3-.6h0l.2.5h0c0,0,0,.1,0,.1h0s0,0,0,0ZM61.1,112.4v-.3c-.1,0-.2.3-.2.3h.2Z"/>
            <path class="cls-4" d="M61.7,112.6h0s0,0,0,0,0,0,0,0c0,0,0,0-.1,0,0,0,0-.1,0-.2s0-.1,0-.2c0,0,0,0,.1,0s0,0,.1,0h0c0-.1,0-.2,0-.2h0s0,0,0,0c0,0,0,0,0,0s0,0,0,0v.5h0ZM61.6,112.2s0,0,0,0,0,0,0,0,0,0,0,.1,0,.1,0,.1c0,0,0,0,0,0s0,0,0,0c0,0,0,0,0,0v-.3h0Z"/>
            <path class="cls-4" d="M62.1,112.5v-.3h.2l-.2.5h0l-.2-.4s0,0,0,0c0,0,0,0,0,0h0s0,0,0,0h0s0,0,0,0,0,0,0,.1v.2c0,0,0,0,0,0Z"/>
            <path class="cls-4" d="M62.7,112.4h-.3c0,0,0,.1,0,.1s0,0,0,0c0,0,0,0,.1,0h0c0,0,0,.1-.2.1s-.1,0-.2,0c0,0,0-.1,0-.2s0-.1,0-.2c0,0,0,0,.1,0,.1,0,.2,0,.2.2h0s0,0,0,0ZM62.6,112.3c0-.1,0-.2,0-.2s0,0,0,0,0,0,0,.1c0,0,.2,0,.2,0Z"/>
            <path class="cls-4" d="M62.9,112.6h0v-.3c0,0,0,0,0,0h0s0,0,0,0c0,0,0,0,0,0h0s0,0,.1,0,0,0,0,0c0,0,0,0,0,0h0s0,0,0,0,0,0,0,0v.4h0Z"/>
            <path class="cls-4" d="M63.2,112.2h0s0,0,0,0h0c0,0,0-.1,0-.1h0c0,.1.1.1.1.1h0s-.1,0-.1,0v.3c0,0,0,0,0,0s0,0,0,0h0s0,0,0,0,0,0,0,0c0,0-.1,0-.1-.1v-.3h0Z"/>
            <path class="cls-4" d="M63.6,112.6h0v-.3c0,0,0,0,0,0h0s0,0,0,0c0,0,0,0,0,0s0,0,0,0v.3ZM63.6,112s0,0,0,0c0,0,0,0,0,0s0,0,0,0c0,0,0,0,0,0Z"/>
            <path class="cls-4" d="M64.1,112.5s0,0,0,0c0,0,0,0-.1,0,0,0-.1,0-.2,0,0,0,0,0,0-.1h0c0,0,0,.1.1.1s0,0,0,0,0,0,0,0h0c0,0-.1,0-.1-.2s0,0,0,0c0,0,0,0,.1,0,0,0,.1,0,.1,0,0,0,0,0,0,.1h0c0,0,0-.1-.1-.1s0,0,0,0,0,0,0,0h0c0,0,.1,0,.1.2h0Z"/>
            <path class="cls-4" d="M64.3,112.6h0v-.3c0,0,0,0,0,0h0s0,0,0,0c0,0,0,0,0,0s0,0,0,0v.3ZM64.3,112s0,0,0,0c0,0,0,0,0,0s0,0,0,0c0,0,0,0,0,0Z"/>
            <path class="cls-4" d="M64.5,112.6h0v-.3c0,0,0,0,0,0h0s0,0,0,0c0,0,0,0,0,0h0s0,0,.1,0,0,0,.1,0,0,0,0,.1v.3h0v-.3s0,0,0-.1,0,0,0,0c0,0,0,0,0,0v.4h0Z"/>
            <path class="cls-4" d="M64.9,112.3c0,0,0,0,0-.1,0,0,0,0,.1,0h.2s0,0,0,0c0,0,0,0,0,.1s0,0,0,.1c0,0,0,0-.1,0s0,0,0,0,0,0,0,0,.1,0,.2,0,0,0,0,.1,0,0,0,.1,0,0-.2,0-.1,0-.2,0c0,0,0,0,0-.1s0-.1,0-.1c0,0,0,0,0,0s0,0,0,0c0,0,0,0,0-.1h0ZM65.1,112.5s0,0,0,.1,0,.1.1.1.1,0,.1-.1,0-.1-.1-.1c0,0,0,0,0,0ZM65.2,112.3c0,0,0-.1,0-.1s0,0,0,0,0,0,0,0,0,0,0,0c0,0,0,0,0,0s0,0,0,0,0,0,0,0Z"/>
          </g>
          <g>
            <path class="cls-4" d="M62.9,109.1s0,.1,0,.2h0c0-.1-.1-.2-.2-.2-.2,0-.3.1-.3.3s0,.3.2.3h.5c0,.1-1,.1-1,.1h0c0-.1.2-.1.2-.1-.1,0-.2-.2-.2-.3,0-.2.2-.4.5-.4s.2,0,.3,0h0Z"/>
            <path class="cls-4" d="M63.8,108.2c-.2,0-.2,0-.2.2v1.5h-.3v-1.7h.5s0,0,0,0Z"/>
            <path class="cls-4" d="M64.7,108.9c.1.1.2.3.2.4s0,.3-.2.4c-.1.1-.3.2-.5.2h-.5c0-.1.4-.1.4-.1.1,0,.2,0,.3-.1,0,0,0-.2,0-.4,0-.3-.1-.5-.4-.5s-.3,0-.3.3h0c0-.2,0-.3,0-.3,0,0,.2,0,.4,0s.3,0,.5.2h0Z"/>
            <path class="cls-4" d="M65.6,107.5s0,0,0,.1h0c0,0,0-.1-.2-.1s-.2,0-.2.2,0,.2.2.2h.2c0,0-.6,0-.6,0h0c0,0,.2,0,.2,0,0,0-.1-.1-.1-.2s.1-.2.3-.2.1,0,.2,0h0ZM65.6,108.2c-.2,0-.2,0-.2.2v1.5h-.3v-1.7h.5s0,0,0,0Z"/>
          </g>
        </g>
      </g>
      <g>
        <g>
          <path class="cls-4" d="M49.2,197.8c-.5,0-1,0-1.5.3h0c-1.3.5-1.9,1.6-1.2,2.5l1.6,2h0l1.9,2.3v.2c.4.3.3.6,0,.9-.1.1-.3.2-.5.3,0,0,0,0-.1,0h0c.5,0,1,0,1.5-.3h0c1.3-.5,1.9-1.6,1.2-2.5l-1.6-2h0l-1.9-2.3v-.2c-.4-.3-.3-.6,0-.9.1-.1.3-.2.5-.3,0,0,0,0,.1,0h0Z"/>
          <path class="cls-4" d="M48.8,211.4c-.5,0-1,0-1.5.3h0c-1.3.5-1.9,1.6-1.2,2.5l.9,1.1h0l.5.6v.2c.4.3.3.6,0,.9-.1.1-.3.2-.5.3,0,0,0,0-.1,0h0c.5,0,1,0,1.5-.3h0c1.3-.5,1.9-1.6,1.2-2.5l-.2-.3h0l-1.2-1.5v-.2c-.4-.3-.3-.6,0-.9.1-.1.3-.2.5-.3,0,0,0,0,.1,0h0Z"/>
          <g>
            <path class="cls-4" d="M45.5,186.2c-.4,0-.7,0-1.1.2h0c-1,.4-1.3,1.1-.9,1.7l.2.2h0l.4.4h0c.2.3.2.6,0,.8,0,0-.2.2-.4.2,0,0,0,0,0,0h0c.4,0,.7,0,1.1-.2h0c1-.4,1.3-1.1.9-1.7l-.2-.2h0l-.3-.4h0c-.2-.3-.2-.6,0-.8,0,0,.2-.2.4-.2,0,0,0,0,0,0h0Z"/>
            <path class="cls-4" d="M48.2,188.8c-.5,0-1,0-1.5.3h0c-1.3.5-1.9,1.6-1.2,2.4l4.8,5.9h0l1.9,2.3v.2c.4.3.3.6,0,.9-.1.1-.3.2-.5.3,0,0,0,0-.1,0h0c.5,0,1,0,1.5-.3h0c1.3-.5,1.9-1.6,1.2-2.5l-1.6-2h0l-5-6.3v-.2c-.4-.3-.3-.6,0-.9.1-.1.3-.2.5-.3,0,0,0,0,.1,0h0Z"/>
          </g>
          <path class="cls-4" d="M44.2,199c-.5,0-1,0-1.5.3h0c-1.3.5-1.9,1.6-1.2,2.5l6.6,8.2h0l1.9,2.3v.2c.4.3.3.6,0,.9-.1.1-.3.2-.5.3,0,0,0,0-.1,0h0c.5,0,1,0,1.5-.3h0c1.3-.5,1.9-1.6,1.2-2.5l-1.6-2h0l-6.9-8.5v-.2c-.4-.3-.3-.6,0-.9.1-.1.3-.2.5-.3,0,0,0,0,.1,0h0Z"/>
        </g>
        <g>
          <g>
            <path class="cls-4" d="M32.4,212.9s0,0,0,.2h0c0-.1,0-.2-.2-.2s-.3.1-.3.3,0,.2,0,.2c0,0,.1.1.2.1h.5c0,0,.1,0,.2,0s0-.1,0-.2v-.5h.3s0,0,0,0c0,0,0,0,0,.1v.3c0,.1,0,.2,0,.3s-.2.1-.2.1h-.6c-.1,0-.2,0-.3-.1,0,0-.1-.2-.1-.3s0-.2.1-.3c0,0,.2-.1.3-.1s.2,0,.3,0h0ZM32.6,212.6c0,0,0,.1,0,.1s0,0,0-.1,0-.1,0-.1,0,0,0,.1Z"/>
            <path class="cls-4" d="M33.5,213.1s0,.1,0,.2,0,.1.1.1c0,0,0,0,0,0h0s-.1,0-.2,0c0,0-.1-.1-.1-.2v-.4c0,0,0-.1,0-.1h0s.3,0,.3,0v.5h0ZM34.1,212.5c0,0,0,0,0,0v.7c0,.2,0,.3.3.3h0c0,0-.2,0-.2,0,0,0-.1,0-.2,0,0,0,0,0,0,0,0,0-.2.1-.3.1s-.2,0-.3-.1h0c0,0,.1,0,.2,0s.1,0,.2,0,0-.1,0-.2v-.8h.3s0,0,0,0h0Z"/>
            <path class="cls-4" d="M35.1,212.9s0,0,0,.2h0c0-.1,0-.2-.2-.2s-.3.1-.3.3,0,.2,0,.2,0,.1.2.1h.4c0,0-1.1,0-1.1,0h0c0,0,.4,0,.4,0-.1,0-.2-.2-.2-.3s0-.2.1-.3.2-.1.3-.1.2,0,.3,0h0Z"/>
            <path class="cls-4" d="M35.6,213.1s0,.1,0,.2,0,.1.1.1c0,0,0,0,0,0h0s-.1,0-.2,0c0,0-.1-.1-.1-.2v-.4c0,0,0-.1,0-.1h0s.3,0,.3,0v.5h0ZM36.1,212.5c0,0,0,0,0,0v.7c0,.2-.1.3-.4.3s-.2,0-.3-.1h0c0,0,.1,0,.2,0s.1,0,.2,0,0-.1,0-.2v-.8h.3s0,0,0,0h0ZM35.7,213.8s0,0,0,0h0s0,0,0,0c0,0-.1,0-.1.1s0,.1.1.1h.1s-.4,0-.4,0h0s.1,0,.1,0c0,0,0,0,0-.1s0-.1.2-.1,0,0,.1,0h0Z"/>
            <path class="cls-4" d="M36.5,212.5c0,0-.1,0-.1.1v1h-.2v-1.2h.3s0,0,0,0Z"/>
            <path class="cls-4" d="M37.5,212.9c0,0,0,0,0,.1v.7c0,.1,0,.2-.1.3,0,0-.2,0-.2,0h0c0,0,.1-.1.2-.2,0,0,0-.1,0-.2h-.1c-.2,0-.3,0-.4-.1,0,0-.2-.2-.2-.3,0-.2.2-.4.6-.4h.4s0,0,0,0h0ZM36.7,213.2c0,.2.1.3.3.3h.2v-.6s0,0-.1,0c-.2,0-.3.1-.3.3Z"/>
            <path class="cls-4" d="M39.1,212.9c0,0,0,0,0,.1v.6h.2c0,0-.7,0-.7,0-.1,0-.2,0-.3-.1s-.2-.2-.2-.3c0-.2.2-.4.6-.4h.4s0,0,0,0h0ZM38.8,213c0,0-.2,0-.3,0s-.2.1-.2.3,0,.2,0,.2.1.1.2.1h.2v-.6h0ZM38.6,212.6s0,.1,0,.1,0,0,0-.1,0-.1,0-.1,0,0,0,.1ZM38.8,212.6s0,.1,0,.1,0,0,0-.1,0-.1,0-.1,0,0,0,.1Z"/>
            <path class="cls-4" d="M39.7,212.9c0,0,0,0,0,.1v.2c0,.1,0,.2-.1.3,0,0-.2.1-.2.1h-.2c0,0,0,0,0,0,0,0,.1,0,.2,0s0-.1,0-.2v-.5h.3s0,0,0,0h0ZM39.5,213.9c0,0,0,.1,0,.1s0,0,0-.1,0-.1,0-.1,0,0,0,.1ZM39.7,213.9c0,0,0,.1,0,.1s0,0,0-.1,0-.1,0-.1,0,0,0,.1Z"/>
            <path class="cls-4" d="M40.2,212.5c0,0-.1,0-.1.1v1h.2c0,0-.4,0-.4,0v-1.2h.3s0,0,0,0Z"/>
            <path class="cls-4" d="M41.1,212.9s0,0,0,.2h0c0-.1,0-.2-.2-.2s-.3.1-.3.3,0,.2,0,.2,0,.1.2.1h.4c0,0-1.1,0-1.1,0h0c0,0,.4,0,.4,0-.1,0-.2-.2-.2-.3s0-.2.1-.3.2-.1.3-.1.2,0,.3,0h0Z"/>
            <path class="cls-4" d="M42,213c0,0,.1.2.1.3h0c0,.2,0,.3.3.3h0c0,0-.2,0-.2,0,0,0-.1,0-.2,0,0,0,0,0,0,0,0,0-.2.1-.3.1h-.3c0,0,.3,0,.3,0,0,0,.2,0,.2-.1,0,0,0-.1,0-.2,0-.2,0-.3-.3-.3s-.2,0-.2.2h0c0-.1,0-.2,0-.2,0,0,.1,0,.3,0s.2,0,.3.1h0Z"/>
            <path class="cls-4" d="M43,212.5c0,0-.1,0-.1.1v.7c0,.2,0,.3.3.3h0c0,0-.2,0-.2,0,0,0,0,0-.2,0,0,0,0,0,0,0,0,0-.2.1-.3.1h-.2c0,0,0,0,0,0,0,0,.1,0,.2,0s0-.1,0-.2v-.8h.3s0,0,0,0Z"/>
            <path class="cls-4" d="M43.6,212.5c0,0-.1,0-.1.1v.6c0,.1,0,.2,0,.3,0,0-.1.1-.2.1h-.2c0,0,0,0,0,0,0,0,.1,0,.2,0s0-.1,0-.2v-.8h.3Z"/>
          </g>
          <g>
            <path class="cls-4" d="M32.8,215.8h0s0,0-.1,0c0,0,0,0-.1-.2h0c0-.1-.5-.1-.5-.1v.3h-.2l.4-1h0l.3.9c0,0,0,.1,0,.1,0,0,0,0,0,0,0,0,0,0,0,0ZM32.4,215.5l-.2-.5-.2.5h.4Z"/>
            <path class="cls-4" d="M33.5,215.8h-.1c0,0,0,0,0,0s0,0-.1,0c0,0-.2,0-.2-.1,0,0,0-.2,0-.3s0-.2,0-.3c0,0,.1-.1.2-.1s.2,0,.2,0h0c0-.2,0-.3-.1-.3h0s.1,0,.1,0c0,0,0,0,.1,0,0,0,0,0,0,.2v.9h0ZM33.4,215.2s0,0-.2,0-.1,0-.2,0,0,.1,0,.2,0,.2,0,.2c0,0,0,0,.1,0s0,0,.1,0c0,0,0,0,0,0v-.5h0Z"/>
            <path class="cls-4" d="M34.3,215.8h-.1c0,0,0,0-.2,0s0,0-.2,0c0,0,0,0,0-.2s0-.1.1-.2c0,0,.2,0,.3,0h0c0-.1,0-.2,0-.2s0,0-.1,0c0,0-.2,0-.2.1h0c0,0,0-.1,0-.1,0,0,0,0,0,0,0,0,0,0,.1,0s.1,0,.2,0,0,.1,0,.3v.4h0ZM34.1,215.5h0c-.2,0-.2,0-.2.2s0,0,0,.1,0,0,0,0c0,0,.1,0,.2,0v-.2Z"/>
            <path class="cls-4" d="M35,215.8h-.1c0,0,0,0-.2,0s0,0-.2,0c0,0,0,0,0-.2s0-.1.1-.2c0,0,.2,0,.3,0h0c0-.1,0-.2,0-.2s0,0-.1,0c0,0-.2,0-.2.1h0c0,0,0-.1,0-.1,0,0,0,0,0,0,0,0,0,0,.1,0s.1,0,.2,0,0,.1,0,.3v.4h0ZM34.9,215.5h0c-.2,0-.2,0-.2.2s0,0,0,.1,0,0,0,0c0,0,.1,0,.2,0v-.2Z"/>
            <path class="cls-4" d="M36.7,215.8h0s0,0-.1,0,0,0-.1-.2h0c0-.1-.5-.1-.5-.1v.3h-.2l.5-1h0l.3.9c0,0,0,.1,0,.1,0,0,0,0,0,0,0,0,0,0,0,0ZM36.3,215.5l-.2-.5-.2.5h.4Z"/>
            <path class="cls-4" d="M37.4,215.8h-.1c0,0,0,0,0,0s0,0-.1,0c0,0-.2,0-.2-.1,0,0,0-.2,0-.3s0-.2,0-.3c0,0,.1-.1.2-.1s.2,0,.2,0h0c0-.2,0-.3-.1-.3h0s.1,0,.1,0c0,0,0,0,.1,0,0,0,0,0,0,.2v.9h0ZM37.2,215.2s0,0-.2,0-.1,0-.2,0,0,.1,0,.2,0,.2,0,.2c0,0,0,0,.1,0s0,0,.1,0c0,0,0,0,0,0v-.5h0Z"/>
            <path class="cls-4" d="M37.9,215.6l.2-.5h0l-.3.8h0l-.2-.6c0,0,0-.1,0-.1,0,0,0,0,0,0h0s0,0,0,0h0s0,0,.2,0c0,0,0,0,.1.2v.3c.1,0,.1,0,.1,0Z"/>
            <path class="cls-4" d="M39,215.5h-.5c0,0,0,.2,0,.2,0,0,0,0,.2,0,0,0,.2,0,.2-.1h0c0,.1-.2.2-.3.2s-.2,0-.2-.1,0-.2,0-.3,0-.2,0-.3c0,0,.1-.1.2-.1.2,0,.3.1.3.4h0q0,0,0,0ZM38.8,215.4c0-.2,0-.3-.2-.3s0,0-.1,0,0,.1,0,.2h.3Z"/>
            <path class="cls-4" d="M39.3,215.8h-.2v-.6c0,0,0-.2-.1-.2h0s.1,0,.1,0c0,0,.1,0,.1,0h0s0,0,.2,0,0,0,0,0c0,0,0,0,0,0h0s0,0-.1,0-.1,0-.2,0v.6h0Z"/>
            <path class="cls-4" d="M39.8,215.1h-.1c0,0,.1,0,.1,0h0c0-.1,0-.2,0-.2h0v.2h.2c0,0-.2,0-.2,0v.5c0,.1,0,.1.1.1s0,0,.1,0h0s0,0,0,0,0,0-.1,0c-.1,0-.2,0-.2-.2v-.5h0Z"/>
            <path class="cls-4" d="M40.5,215.8h-.1v-.6c0,0,0-.2-.1-.2h0s.1,0,.1,0c0,0,0,0,.1,0s0,0,0,.2v.6ZM40.5,214.9s0,0,0,0,0,0,0-.1,0,0,0,0,0,0,0,.1Z"/>
            <path class="cls-4" d="M41.2,215.6c0,0,0,.1,0,.1,0,0-.1,0-.2,0-.1,0-.2,0-.2,0,0,0,0,0,0-.2h0c0,.1,0,.2.2.2s.2,0,.2-.1,0-.1-.1-.1h0c-.1,0-.2-.1-.2-.3s0-.1,0-.1c0,0,.1,0,.2,0,.1,0,.2,0,.2,0s0,0,0,.2h0c0-.1,0-.2-.2-.2s-.2,0-.2.1,0,.1.1.1h0c.1.1.2.1.2.3h0Z"/>
            <path class="cls-4" d="M41.6,215.8h-.1v-.6c0,0,0-.2-.1-.2h0s.1,0,.1,0c0,0,0,0,.1,0s0,0,0,.2v.6ZM41.6,214.9s0,0,0,0,0,0,0-.1,0,0,0,0,0,0,0,.1Z"/>
            <path class="cls-4" d="M42,215.8h-.1v-.6c0,0,0-.2-.1-.2h0s.1,0,.1,0c0,0,.1,0,.1,0h0s.1,0,.2,0,.1,0,.2,0c0,0,0,.1,0,.2v.5h-.1v-.5c0,0,0-.1,0-.2,0,0,0,0-.1,0,0,0-.1,0-.2,0v.6h0Z"/>
            <path class="cls-4" d="M42.7,215.3c0,0,0-.1,0-.2s.1,0,.2,0h.3s0,0,0,0h0c0,0,.1.1.1.2s0,.1,0,.2c0,0-.1,0-.2,0s-.2,0-.2,0,0,0,.2,0,.2,0,.2,0c0,0,0,.1,0,.2s0,.1,0,.2c0,0-.2,0-.2,0s-.2,0-.2,0c0,0,0-.1,0-.2s0-.2.2-.2c0,0,0,0,0,0s0,0,0,0c0,0-.1-.1-.1-.2h0ZM42.9,215.7c0,0-.1,0-.1.2s0,.2.2.2.2,0,.2-.2,0-.2-.2-.2h0ZM43.1,215.3c0-.1,0-.2-.2-.2s0,0-.1,0,0,0,0,.1,0,.1,0,.1c0,0,0,0,.1,0s0,0,.1,0,0,0,0-.1h0Z"/>
          </g>
          <g>
            <path class="cls-4" d="M39.3,210.1c0,0,0,.2,0,.4h0c0-.2-.2-.3-.4-.3-.3,0-.5.2-.5.5s.1.5.3.6h.8v.2h-1.6v-.2h.4c-.2-.1-.3-.3-.3-.6,0-.4.3-.7.8-.7s.4,0,.4.1h0Z"/>
            <path class="cls-4" d="M40.8,208.6c-.3,0-.3.1-.3.3v2.5h-.5v-2.9h.8c0,0,0,0,0,0Z"/>
            <path class="cls-4" d="M42.3,209.7c.2.2.3.4.3.7s0,.5-.3.7c-.2.2-.4.3-.8.3h-.8v-.2h.7c.2,0,.4,0,.5-.2s.2-.4.2-.6c0-.5-.2-.8-.6-.8s-.5.1-.6.5h0c0-.3,0-.4.1-.5.1-.1.3-.1.6-.1s.6.1.8.3h0Z"/>
            <path class="cls-4" d="M43.8,207.4s0,0,0,.2h0c0-.1-.1-.2-.3-.2-.2,0-.3.1-.3.3s0,.3.3.3h.3c0,0-.9,0-.9,0h0c0,0,.3,0,.3,0-.1,0-.2-.2-.2-.3,0-.2.2-.4.5-.4s.2,0,.3,0ZM43.8,208.6c-.3,0-.3.1-.3.3v2.5h-.5v-2.9h.8c0,0,0,0,0,0Z"/>
          </g>
        </g>
      </g>
      <g>
        <g>
          <g>
            <path class="cls-4" d="M100.9,53.8c0,0,0,.1,0,.3h0c0-.2-.2-.3-.4-.3s-.4.2-.4.5,0,.3,0,.4.2.2.3.2h.8c0,0,.2,0,.3,0s.1-.2.1-.3v-.7h.5s0,0,0,0c-.1,0-.2,0-.2.2v.4c0,.2,0,.3-.2.4,0,0-.2.2-.4.2h-1c-.2,0-.4,0-.5-.2s-.2-.3-.2-.5,0-.3.2-.5.3-.2.5-.2.3,0,.4,0h0ZM101.4,53.3c0,0,0,.2-.2.2s-.2,0-.2-.2,0-.2.2-.2.2,0,.2.2Z"/>
            <path class="cls-4" d="M102.8,54.2c0,0,0,.2,0,.3,0,0,0,.2.2.2,0,0,0,0,0,0h0c0,0-.2,0-.3-.1,0,0-.2-.2-.2-.4v-.7c0,0,0-.2-.1-.2h0s.5,0,.5,0v.9h0ZM103.7,53.2c-.1,0-.1,0-.2.2v1.1c0,.3.2.4.4.4h0c0,.1-.2.1-.2.1-.1,0-.2,0-.3,0,0,0,0,0,0,0-.1.2-.3.2-.5.2s-.4,0-.5-.2h0c0,0,.2,0,.4,0s.2,0,.3,0,.1-.2.1-.3v-1.3h.5s0,0,0,0h0Z"/>
            <path class="cls-4" d="M105.3,53.8c0,0,0,.1,0,.3h0c0-.2-.2-.3-.4-.3s-.4.2-.4.5,0,.3,0,.4c0,0,.1.2.3.2h.7c0,.1-1.8.1-1.8.1h0c0-.1.7-.1.7-.1-.2-.1-.3-.3-.3-.6s0-.3.2-.5.3-.2.5-.2.3,0,.4,0h0Z"/>
            <path class="cls-4" d="M106.1,54.2c0,0,0,.2,0,.3,0,0,0,.2.2.2,0,0,0,0,0,0h0c0,0-.2,0-.3-.1,0,0-.2-.2-.2-.4v-.7c0,0,0-.2-.1-.2h0s.5,0,.5,0v.9h0ZM107,53.2c-.1,0-.1,0-.2.2v1.1c0,.4-.2.6-.6.6s-.4,0-.5-.2h0c0,0,.2,0,.4,0s.2,0,.3,0,.1-.2.1-.3v-1.3h.5s0,0,0,0h0ZM106.3,55.3s0,0,0,.1h0c0,0,0-.1-.2-.1-.1,0-.2,0-.2.2s0,.2.2.2h.2c0,0-.6,0-.6,0h0c0,0,.2,0,.2,0,0,0-.1-.1-.1-.2,0-.1.1-.2.3-.2s.2,0,.2,0Z"/>
            <path class="cls-4" d="M107.6,53.2c-.2,0-.2,0-.2.2v1.6h-.3v-1.9h.5s0,0,0,0Z"/>
            <path class="cls-4" d="M109.1,53.8c-.1,0-.2,0-.2.2v1.1c0,.2-.1.4-.2.4-.1,0-.3.1-.3.1h0c.1,0,.2-.2.2-.3,0,0,0-.2,0-.3h-.2c-.3,0-.5,0-.6-.2s-.2-.3-.2-.5c0-.4.4-.7.9-.7h.7c0,0,0,0,0,0h0ZM107.9,54.3c0,.3.2.5.5.6h.3v-1c0,0-.1,0-.2,0-.3,0-.6.2-.6.5h0Z"/>
            <path class="cls-4" d="M111.8,53.8c-.1,0-.2,0-.2.2v.9h.4c0,.1-1.1.1-1.1.1-.2,0-.3,0-.5-.2s-.2-.3-.2-.5c0-.4.4-.6.9-.6h.7s0,0,0,0h0ZM111.3,53.9c-.2,0-.4,0-.5,0s-.3.2-.3.4,0,.3.1.4c0,0,.2.2.3.2h.4v-1ZM110.9,53.3c0,0,0,.2-.2.2s-.2,0-.2-.2,0-.2.2-.2.2,0,.2.2ZM111.3,53.3c0,0,0,.2-.2.2s-.2,0-.2-.2,0-.2.2-.2.2,0,.2.2Z"/>
            <path class="cls-4" d="M112.8,53.8c-.1,0-.2,0-.2.2v.4c0,.2,0,.3-.2.4,0,.1-.2.2-.4.2h-.2c0-.1,0-.1,0-.1,0,0,.2,0,.3,0s.1-.2.1-.3v-.7h.5s0,0,0,0h0ZM112.4,55.4c0,0,0,.2-.2.2s-.2,0-.2-.2,0-.2.2-.2.2,0,.2.2ZM112.8,55.4c0,0,0,.2-.2.2s-.2,0-.2-.2,0-.2.2-.2.2,0,.2.2Z"/>
            <path class="cls-4" d="M113.6,53.2c-.2,0-.2,0-.2.2v1.5h.4c0,.1-.7.1-.7.1v-1.9h.5Z"/>
            <path class="cls-4" d="M115.1,53.8c0,0,0,.1,0,.3h0c0-.2-.2-.3-.4-.3s-.4.2-.4.5,0,.3,0,.4c0,0,.1.2.3.2h.7c0,.1-1.8.1-1.8.1h0c0-.1.7-.1.7-.1-.2-.1-.3-.3-.3-.6s0-.3.2-.5.3-.2.5-.2.3,0,.4,0h0Z"/>
            <path class="cls-4" d="M116.6,53.9c.1.1.2.3.2.5h0c0,.4.2.5.4.5h0c0,.1-.2.1-.2.1-.1,0-.2,0-.3,0,0,0,0,0-.1-.1-.1.1-.3.2-.5.2h-.5c0-.1.5-.1.5-.1.1,0,.2,0,.3-.2,0,0,0-.2,0-.4,0-.3-.1-.5-.4-.5s-.3,0-.4.3h0c0-.2,0-.3,0-.3s.2,0,.4,0,.4,0,.5.2h0Z"/>
            <path class="cls-4" d="M118,53.2c-.2,0-.2,0-.2.2v1.1c0,.3.2.4.4.4h0c0,.1-.2.1-.2.1-.1,0-.2,0-.3,0,0,0,0,0,0,0,0,.1-.2.2-.4.2h-.2c0-.1,0-.1,0-.1,0,0,.2,0,.3,0s.1-.2.1-.3v-1.3h.5c0,0,0,0,0,0Z"/>
            <path class="cls-4" d="M119.1,53.2c-.2,0-.2,0-.2.2v1c0,.2,0,.3-.2.4,0,0-.2.2-.4.2h-.2c0-.1,0-.1,0-.1,0,0,.2,0,.3,0s.1-.2.1-.3v-1.3h.5c0,0,0,0,0,0Z"/>
          </g>
          <g>
            <path class="cls-4" d="M101.7,58.5s0,0,0,0c0,0-.1,0-.2,0s-.2-.1-.2-.3v-.2h-.8l-.2.5h-.1l.7-1.7h0l.6,1.4c0,0,0,.2.1.2,0,0,0,0,.2,0,0,0,0,0,0,0ZM101,57.9l-.3-.7-.3.7h.6Z"/>
            <path class="cls-4" d="M102.8,58.5h-.2c0-.1,0-.1,0-.1,0,0,0,0-.1,0s-.1,0-.2,0c-.2,0-.3,0-.3-.2,0-.1-.1-.3-.1-.4s0-.3.1-.4c0-.1.2-.2.4-.2s.2,0,.3,0v-.2c0-.2,0-.3-.2-.3h0c0,0,.2,0,.2,0,0,0,.2,0,.2,0,0,0,0,.1,0,.2v1.4h0ZM102.5,57.4c0,0-.2,0-.2,0s-.2,0-.2.2,0,.2,0,.4,0,.3,0,.4c0,0,.1.2.2.2s.1,0,.2,0c0,0,0,0,0-.1v-.8h0Z"/>
            <path class="cls-4" d="M104,58.5h-.2c0-.1,0-.1,0-.1,0,0-.2.1-.4.1s-.2,0-.2,0c0,0-.1-.1-.1-.3s0-.2.2-.3c.1,0,.3,0,.5,0h0c0-.2,0-.3,0-.4,0,0-.1,0-.2,0-.1,0-.2,0-.3.2h-.1c0,0,0-.2,0-.2,0,0,0,0,.2,0,0,0,.1,0,.2,0s.2,0,.3,0c0,0,.1.2.1.4v.7h0ZM103.8,57.9h0c-.3,0-.4,0-.4.3s0,.1,0,.2.1,0,.2,0c.1,0,.2,0,.2-.2,0,0,0-.3,0-.3Z"/>
            <path class="cls-4" d="M105.2,58.5h-.2c0-.1,0-.1,0-.1,0,0-.2.1-.4.1s-.2,0-.2,0c0,0-.1-.1-.1-.3s0-.2.2-.3c.1,0,.3,0,.5,0h0c0-.2,0-.3,0-.4,0,0-.1,0-.2,0-.1,0-.2,0-.3.2h-.1c0,0,0-.2,0-.2,0,0,0,0,.2,0,0,0,.1,0,.2,0s.2,0,.3,0c0,0,.1.2.1.4v.7h0ZM105,57.9h0c-.3,0-.4,0-.4.3s0,.1,0,.2.1,0,.2,0c.1,0,.2,0,.2-.2,0,0,0-.3,0-.3Z"/>
            <path class="cls-4" d="M107.9,58.5s0,0,0,0c0,0-.1,0-.2,0s-.2-.1-.2-.3v-.2h-.8l-.2.5h-.1l.7-1.7h0l.6,1.4c0,0,0,.2.1.2,0,0,0,0,.2,0,0,0,0,0,0,0ZM107.2,57.9l-.3-.7-.3.7h.6Z"/>
            <path class="cls-4" d="M109,58.5h-.2c0-.1,0-.1,0-.1,0,0,0,0-.1,0s-.1,0-.2,0c-.2,0-.3,0-.3-.2,0-.1-.1-.3-.1-.4s0-.3.1-.4c0-.1.2-.2.4-.2s.2,0,.3,0v-.2c0-.2,0-.3-.2-.3h0c0,0,.2,0,.2,0,0,0,.2,0,.2,0,0,0,0,.1,0,.2v1.4h0ZM108.8,57.4c0,0-.2,0-.2,0s-.2,0-.2.2,0,.2,0,.4,0,.3,0,.4c0,0,.1.2.2.2s.1,0,.2,0c0,0,0,0,0-.1v-.8h0Z"/>
            <path class="cls-4" d="M109.9,58.1l.4-.8h.1l-.5,1.2h0l-.4-.9c0,0,0-.2-.1-.2,0,0,0,0-.2,0h0c0,0,0,0,0,0h0c0,0,.2,0,.2,0,0,0,.1.1.2.3l.2.6h0Z"/>
            <path class="cls-4" d="M111.6,57.9h-.8c0,.1,0,.3,0,.3s.1.1.2.1c.2,0,.3,0,.4-.2h0c-.1.2-.3.3-.5.3s-.3,0-.4-.2c0-.1-.1-.3-.1-.4s0-.3.1-.4c0-.1.2-.2.4-.2.3,0,.5.2.5.6h0c0,.1,0,.1,0,.1ZM111.3,57.8c0-.3,0-.5-.3-.5s-.1,0-.2.1c0,0,0,.2,0,.3h.5Z"/>
            <path class="cls-4" d="M112.1,58.5h-.2v-.9c0-.2,0-.2-.2-.2h0c0,0,.2,0,.2,0,.1,0,.2,0,.2.1h0c0,0,.2-.1.3-.1s.1,0,.2,0,0,0,0,.1h-.1s-.1,0-.2,0-.2,0-.2.1v1Z"/>
            <path class="cls-4" d="M112.9,57.4h-.2c0,0,.2,0,.2,0v-.4h.2v.4h.3c0,0-.3,0-.3,0v.8c0,.2,0,.2.2.2s.1,0,.2,0h0c0,0,0,.1-.1.1s-.1,0-.2,0c-.2,0-.3,0-.3-.3v-.8h0Z"/>
            <path class="cls-4" d="M114,58.5h-.2v-.9c0-.2,0-.2-.2-.2h0c0,0,.2,0,.2,0,0,0,.2,0,.2,0,0,0,0,.1,0,.2v.9ZM114,57c0,0,0,.1-.1.1s-.1,0-.1-.2,0-.1.1-.1.1,0,.1.2Z"/>
            <path class="cls-4" d="M115.2,58.2c0,.1,0,.2-.1.2,0,0-.2,0-.3,0-.2,0-.3,0-.4-.1,0,0,0-.1,0-.3h0c0,.2.1.3.4.3s.3,0,.3-.2,0-.2-.2-.2h-.2c-.2-.1-.3-.2-.3-.4s0-.2.1-.2.2,0,.3,0c.2,0,.3,0,.4,0,0,0,0,.1,0,.3h0c0-.2-.1-.3-.3-.3s-.3,0-.3.2,0,.2.2.2h.2c.2.1.3.2.3.4h0Z"/>
            <path class="cls-4" d="M115.8,58.5h-.2v-.9c0-.2,0-.2-.2-.2h0c0,0,.2,0,.2,0,0,0,.2,0,.2,0,0,0,0,.1,0,.2v.9ZM115.8,57c0,0,0,.1-.1.1s-.1,0-.1-.2,0-.1.1-.1.1,0,.1.2Z"/>
            <path class="cls-4" d="M116.4,58.5h-.2v-.9c0-.2,0-.2-.2-.2h0c0,0,.2,0,.2,0,.1,0,.2,0,.2,0h0c0,0,.2-.1.3-.1s.2,0,.3,0,.1.2.1.4v.8h-.2v-.8c0-.1,0-.2,0-.3,0,0-.1,0-.2,0-.1,0-.2,0-.3.1v1h0Z"/>
            <path class="cls-4" d="M117.5,57.7c0-.2,0-.2.1-.3,0,0,.2,0,.3,0h.5c0,0-.2,0-.2,0h0c0,0,.2.2.2.3s0,.2-.1.3c0,0-.2,0-.3,0s-.3,0-.3,0,0,0,.3,0,.3,0,.4,0c0,0,.2.2.2.3s0,.2-.2.3c0,0-.2,0-.4,0s-.3,0-.4,0c0,0-.2-.2-.2-.3s.1-.3.3-.3c0,0,0,0,0-.2s0-.1,0-.1c0,0-.2-.2-.2-.3h0ZM117.9,58.3c-.1,0-.2.1-.2.3s.1.3.3.3.3,0,.3-.3-.1-.3-.3-.3h-.1ZM118.3,57.7c0-.2-.1-.3-.3-.3s-.1,0-.2,0c0,0,0,.1,0,.2s0,.2,0,.2c0,0,.1,0,.2,0s.1,0,.2,0c0,0,0-.1,0-.2h0Z"/>
          </g>
          <g>
            <path class="cls-4" d="M112.1,49.2c.1.1.1.3.1.6h0c0-.4-.3-.5-.7-.5-.5,0-.7.3-.7.9s.2.8.6.9h1.2v.3h-2.6v-.3h.7c-.3-.2-.5-.5-.5-.9,0-.6.4-1.2,1.2-1.2s.6,0,.7.2Z"/>
            <path class="cls-4" d="M114.5,46.8c-.4,0-.5.2-.5.5v4.1h-.8v-4.6h1.3s0,.1,0,.1Z"/>
            <path class="cls-4" d="M117,48.6c.3.3.4.7.4,1.2s-.2.8-.4,1.1c-.3.3-.7.5-1.2.5h-1.3v-.3h1.1c.3,0,.6-.1.8-.4s.2-.6.2-.9c0-.8-.3-1.3-1-1.3s-.9.2-.9.7h-.1c0-.5,0-.7.2-.9.2-.2.5-.2,1-.2s.9.2,1.2.5h0Z"/>
            <path class="cls-4" d="M119.4,45c0,0,0,.1,0,.3h0c0-.2-.2-.3-.4-.3-.3,0-.5.2-.5.5s.1.5.5.5h.5v.2h-1.5c0-.1.5-.1.5-.1-.2-.1-.3-.3-.3-.5,0-.3.3-.6.8-.6s.4,0,.5,0ZM119.3,46.8c-.4,0-.5.2-.5.5v4.1h-.8v-4.6h1.3s0,.1,0,.1Z"/>
          </g>
        </g>
        <g>
          <path class="cls-4" d="M126.6,49.9c-.2,0-.5,0-.7.1h0c-.7.2-.9.8-.6,1.2l.8,1h0l.9,1.1h0c.1.2,0,.4,0,.5,0,0-.2.1-.3.2,0,0,0,0,0,0h0c.2,0,.5,0,.7-.1h0c.6-.2.9-.8.6-1.2l-.8-1h0l-.9-1.1h0c-.1-.2,0-.4,0-.5,0,0,.2-.1.3-.2,0,0,0,0,0,0h0Z"/>
          <path class="cls-4" d="M126.4,56.5c-.2,0-.5,0-.7.1h0c-.7.2-.9.8-.6,1.2l.4.5h0l.2.3h0c.1.2,0,.4,0,.5,0,0-.2.1-.3.2,0,0,0,0,0,0h0c.2,0,.5,0,.7-.1h0c.7-.2.9-.8.6-1.2h-.1c0-.1-.6-.8-.6-.8h0c-.1-.2,0-.4,0-.5,0,0,.2-.1.3-.2,0,0,0,0,0,0h0Z"/>
          <g>
            <path class="cls-4" d="M124.8,44.3c-.2,0-.3,0-.5,0h0c-.5.2-.7.6-.4.8h0c0,0,.2.3.2.3h0c0,.1,0,.3,0,.4,0,0-.1,0-.2.1,0,0,0,0,0,0h0c.2,0,.3,0,.5,0h0c.5-.2.7-.6.4-.8h0c0,0-.2-.3-.2-.3h0c0-.1,0-.3,0-.4,0,0,.1,0,.2-.1,0,0,0,0,0,0h0Z"/>
            <path class="cls-4" d="M126.1,45.5c-.2,0-.5,0-.7.1h0c-.7.2-.9.8-.6,1.2l2.3,2.9h0l.9,1.1h0c.1.2.1.4,0,.5,0,0-.2.1-.3.2,0,0,0,0,0,0h0c.2,0,.5,0,.7-.1h0c.6-.2.9-.8.6-1.2l-.8-1h0l-2.4-3h0c-.1-.2,0-.4,0-.5,0,0,.2-.1.3-.2,0,0,0,0,0,0h0Z"/>
          </g>
          <path class="cls-4" d="M124.2,50.5c-.2,0-.5,0-.7.1h0c-.7.2-.9.8-.6,1.2l3.2,3.9h0l.9,1.1h0c.1.2,0,.4,0,.5,0,0-.2.1-.3.2,0,0,0,0,0,0h0c.2,0,.5,0,.7-.1h0c.7-.2.9-.8.6-1.2l-.8-1h0l-3.3-4.1h0c-.1-.2,0-.4,0-.5,0,0,.2-.1.3-.2,0,0,0,0,0,0h0Z"/>
        </g>
      </g>
    </g>
  </g>
</svg>